<?xml version="1.0" encoding="UTF-8"?> <svg xmlns="http://www.w3.org/2000/svg" viewBox="0 0 100.00 100.00" data-guides="{&quot;vertical&quot;:[],&quot;horizontal&quot;:[]}"><path fill-rule="evenodd" fill="#e5446d" x="0" y="0" width="100" height="100" rx="50" ry="50" id="tSvg727f24dbb2" title="Rectangle 3" fill-opacity="1" stroke="none" stroke-opacity="1" d="M0 50C0 22.3858 22.3858 0 50 0H50C77.6142 0 100 22.3858 100 50H100C100 77.6142 77.6142 100 50 100H50C22.3858 100 0 77.6142 0 50Z"></path><path fill="#ffffff" stroke="#ffffff" fill-opacity="1" stroke-width="0" stroke-opacity="1" fill-rule="evenodd" id="tSvgc3091132b1" title="Path 3" d="M88.356 50.6504C88.0665 50.0545 87.3488 49.806 86.7528 50.0952C83.9232 51.4699 81.0936 52.8445 78.264 54.2192C76.3357 55.0544 74.4075 55.8896 72.4792 56.7248C70.7307 56.2747 68.9897 55.7962 67.2568 55.2896C66.9219 55.1648 66.5869 55.04 66.252 54.9152C66.1092 54.8626 65.9577 54.8379 65.8056 54.8424C65.0952 54.6128 64.4776 54.3952 64.0616 54.212C62.0664 53.3336 58.5016 51.2688 57.0648 50.0224C55.4416 48.6192 51.2128 43.4112 51.1704 43.3584C50.8113 42.9153 50.1899 42.7862 49.684 43.0496C48.5208 43.6552 44.748 45.2528 42.7504 44.672C41.696 44.3584 39.7448 43.288 39.1928 42.6216C38.8248 42.1784 38.5112 40.5808 38.6768 40.0704C39.108 39.852 40.7432 40.1288 41.544 40.264C42.9144 40.496 44.2104 40.7152 45.2112 40.3912C47.16 39.7616 51.0896 36.404 52.0368 35.5784C52.9768 35.2352 57.6144 33.672 60.8488 34.9584C62.3912 35.5683 64.0358 35.8784 65.6944 35.872C68.8952 35.872 71.256 34.772 71.4312 34.688C75.3608 32.588 79.2904 30.488 83.22 28.388C84.0193 27.9237 84.0163 26.7683 83.2146 26.3082C82.8688 26.1097 82.4469 26.0958 82.0888 26.2712C78.1768 28.3621 74.2648 30.4531 70.3528 32.544C70.312 32.5632 66.1376 34.4784 61.736 32.728C57.9024 31.2016 52.9288 32.7192 51.4208 33.2488C49.748 32.6144 45.0456 30.932 42.956 31.2488C41.0056 31.548 35.3256 31.816 33.0248 31.3912C32.0536 31.1168 24.676 27.1248 18.2288 23.5088C17.423 23.0568 16.43 23.6466 16.4414 24.5705C16.4468 24.9992 16.6804 25.3926 17.0544 25.6024C21.2712 27.968 31.2232 33.4952 32.548 33.7424C35.3624 34.264 41.4104 33.9136 43.3168 33.6216C44.2592 33.4784 46.8192 34.1832 49.06 34.9496C47.3848 36.32 45.3848 37.812 44.4728 38.1064C44.0296 38.2496 42.8736 38.0536 41.944 37.896C40.0424 37.5744 38.0768 37.2416 36.9248 38.4104C35.6392 39.728 36.4096 43.0272 37.344 44.152C38.308 45.316 40.744 46.5792 42.0728 46.9736C44.6584 47.7248 48.2336 46.3584 49.9064 45.6024C51.172 47.1376 54.0904 50.6224 55.492 51.8344C57.2408 53.352 61.1616 55.556 63.0928 56.4064C63.8448 56.7376 65.116 57.152 66.4744 57.5576C68.3504 58.2565 70.2264 58.9555 72.1024 59.6544C72.3968 59.8064 72.62 60.0896 72.7664 60.4976C73.0208 61.2072 72.9696 62.1544 72.6408 62.852C72.252 63.6676 71.3798 64.1375 70.4848 64.0136C70.3157 63.9161 70.1254 63.8612 69.9304 63.8536C67.3869 62.5341 64.8435 61.2147 62.3 59.8952C61.4851 59.4602 60.5048 60.0706 60.5356 60.9938C60.5502 61.4325 60.8032 61.8282 61.1952 62.0256C63.7568 63.3541 66.3184 64.6827 68.88 66.0112C68.9032 66.0224 68.9272 66.0288 68.9504 66.04C69.0088 66.344 68.9544 66.5552 68.868 66.8336C68.7955 67.0485 68.7417 67.2694 68.7072 67.4936C68.2032 68.4248 67.0624 68.8368 66.084 68.416C63.9371 67.4829 61.7901 66.5499 59.6432 65.6168C59.6144 65.604 59.5848 65.5992 59.5552 65.5888C59.5168 65.5752 59.4784 65.5608 59.44 65.552C59.4008 65.5424 59.3608 65.5376 59.3216 65.5328C59.2832 65.528 59.2456 65.5216 59.208 65.52C59.1672 65.5184 59.1272 65.5216 59.0872 65.5248C59.0504 65.5272 59.0136 65.528 58.9776 65.5344C58.9376 65.5408 58.8992 65.5512 58.8608 65.5616C58.8256 65.5712 58.7896 65.5792 58.7552 65.592C58.7184 65.6056 58.684 65.6232 58.6488 65.64C58.6144 65.6568 58.58 65.672 58.5472 65.692C58.5144 65.7112 58.4848 65.7352 58.4544 65.7576C58.4223 65.7803 58.3913 65.8046 58.3616 65.8304C58.3336 65.856 58.3088 65.8848 58.2832 65.9128C58.256 65.9432 58.228 65.972 58.204 66.0048C58.1808 66.036 58.1624 66.0704 58.1416 66.104C58.1248 66.132 58.1056 66.156 58.0912 66.1856C58.0864 66.1952 58.0848 66.2056 58.08 66.2152C58.076 66.224 58.0696 66.2312 58.0664 66.24C58.0544 66.2672 58.0496 66.2944 58.04 66.3224C58.0256 66.3632 58.0104 66.404 58.0008 66.4448C57.992 66.4816 57.988 66.5192 57.9832 66.5568C57.9776 66.5968 57.9712 66.6368 57.9704 66.6768C57.9688 66.7152 57.972 66.7536 57.9744 66.792C57.9768 66.8304 57.9784 66.8688 57.984 66.9072C57.9904 66.9456 58.0008 66.9832 58.0104 67.0208C58.02 67.0576 58.0288 67.0936 58.0416 67.1296C58.0552 67.1656 58.072 67.2008 58.0888 67.2352C58.1048 67.2696 58.1208 67.304 58.14 67.336C58.16 67.3696 58.184 67.4008 58.2072 67.432C58.2296 67.4632 58.252 67.4936 58.2776 67.5224C58.304 67.552 58.3344 67.5776 58.3648 67.6048C58.3936 67.6304 58.4208 67.6568 58.452 67.68C58.4848 67.704 58.5208 67.7248 58.5568 67.7456C58.5824 67.7616 58.6056 67.78 58.6328 67.7936C59.2051 68.0771 59.7773 68.3605 60.3496 68.644C61.3692 69.13 61.8041 70.3488 61.3224 71.3704C61.0893 71.8679 60.6666 72.2514 60.1488 72.4352C59.6408 72.6185 59.0806 72.5903 58.5936 72.3568C56.9843 71.5965 55.3749 70.8363 53.7656 70.076C54.2243 69.2979 54.6829 68.5197 55.1416 67.7416C56.4664 65.5024 55.7208 62.5984 53.4808 61.2688C53.4803 61.2685 53.4797 61.2683 53.4792 61.268C52.5177 60.6996 51.3863 60.4894 50.2848 60.6744C50.5032 58.536 49.528 56.3776 47.5976 55.2296C47.5955 55.2283 47.5933 55.2269 47.5912 55.2256C45.6736 54.0992 43.3488 54.2592 41.5896 55.4304C41.2305 54.3526 40.4952 53.4401 39.5184 52.86C37.2616 51.5352 34.3496 52.2816 33.0272 54.5224C31.9547 56.3376 30.8821 58.1528 29.8096 59.968C27.1845 58.0901 24.5595 56.2123 21.9344 54.3344C21.9064 54.3144 21.8752 54.3008 21.8456 54.284C21.8168 54.2672 21.7912 54.2464 21.7608 54.232C18.9232 52.8539 16.0856 51.4757 13.248 50.0976C12.4169 49.6942 11.4608 50.3418 11.527 51.2632C11.5578 51.6908 11.8143 52.0696 12.2 52.2568C15.0072 53.6205 17.8144 54.9843 20.6216 56.348C23.3139 58.2741 26.0061 60.2003 28.6984 62.1264C28.0678 64.218 28.9465 66.47 30.8272 67.5816C31.5542 68.0108 32.383 68.237 33.2272 68.2368C33.4904 68.2368 33.7512 68.2072 34.0096 68.164C33.7824 70.3208 34.7664 72.4984 36.716 73.652C37.5644 74.1538 38.5319 74.4185 39.5176 74.4184C40.0239 74.4178 40.5278 74.3495 41.016 74.2152C41.6196 74.0487 42.1919 73.7847 42.7104 73.4336C43.0749 74.5051 43.8107 75.4109 44.7848 75.9872C47.0349 77.3103 49.9312 76.5666 51.2656 74.3232C51.6915 73.6003 52.1173 72.8773 52.5432 72.1544C54.2176 72.9456 55.892 73.7368 57.5664 74.528C58.6285 75.0351 59.8492 75.0964 60.9568 74.6984C62.0764 74.3025 62.9903 73.474 63.4936 72.3984C63.8337 71.6775 63.9727 70.8782 63.896 70.0848C64.3083 70.264 64.7205 70.4432 65.1328 70.6224C65.6847 70.8608 66.2796 70.9836 66.8808 70.9832C68.6617 70.9828 70.2733 69.9279 70.9864 68.296C71.0528 68.1448 71.0864 67.9872 71.0864 67.8224C71.0896 67.7784 71.1312 67.6472 71.1608 67.5512C71.2488 67.2672 71.3672 66.8872 71.3824 66.3952C72.8755 66.189 74.1644 65.2447 74.8112 63.8832C75.4144 62.6064 75.4968 61 75.0272 59.6904C74.8744 59.2682 74.6548 58.8733 74.3768 58.5208C75.9984 57.8184 77.62 57.116 79.2416 56.4136C79.2504 56.4096 79.2576 56.404 79.2664 56.3992C79.2736 56.396 79.2816 56.3952 79.2888 56.3912C82.1264 55.0128 84.964 53.6344 87.8016 52.256C88.3971 51.9649 88.645 51.2469 88.356 50.6504ZM32.0456 65.5112C30.9345 64.8581 30.561 63.4293 31.2104 62.316C32.5048 60.1248 33.7992 57.9336 35.0936 55.7424C35.5158 55.0324 36.2819 54.5985 37.108 54.6016C37.5136 54.6016 37.9248 54.7064 38.2984 54.9256C39.4032 55.5827 39.7709 57.0082 39.1216 58.1176C37.8277 60.3091 36.5339 62.5005 35.24 64.692C34.5826 65.7984 33.1543 66.1647 32.0456 65.5112ZM40.3824 71.8976C39.5575 72.1301 38.6735 72.0162 37.9344 71.5824C36.396 70.672 35.908 68.6304 36.8448 67.0328C38.5205 64.1992 40.1963 61.3656 41.872 58.532C42.4715 57.5008 43.572 56.8638 44.7648 56.8576C45.3152 56.8576 45.8688 56.9976 46.3728 57.2928C47.9016 58.204 48.3808 60.2384 47.4408 61.828C45.7661 64.6613 44.0915 67.4947 42.4168 70.328C41.9707 71.0977 41.2401 71.6614 40.3824 71.8976ZM49.1992 73.0992C48.5399 74.203 47.1137 74.5684 46.0048 73.9176C44.8912 73.2584 44.5168 71.824 45.1712 70.7192C46.4645 68.528 47.7579 66.3368 49.0512 64.1456C49.4735 63.4367 50.2388 63.0036 51.064 63.0064C52.8598 63.005 53.9837 64.9481 53.0871 66.504C53.0837 66.5099 53.0802 66.5157 53.0768 66.5216C52.5341 67.4427 51.9915 68.3637 51.4488 69.2848C51.0988 69.3684 50.8055 69.6061 50.6512 69.9312C50.5308 70.1886 50.5067 70.4807 50.5832 70.7544C50.1219 71.536 49.6605 72.3176 49.1992 73.0992Z"></path><defs></defs></svg> 