<?xml version="1.0" encoding="UTF-8"?> <svg xmlns="http://www.w3.org/2000/svg" viewBox="0 0 100.00 100.00" data-guides="{&quot;vertical&quot;:[],&quot;horizontal&quot;:[]}"><path fill="#94b506" stroke="none" fill-opacity="1" stroke-width="1" stroke-opacity="1" color="rgb(51, 51, 51)" fill-rule="evenodd" x="0" y="0" width="100" height="100" rx="50" ry="50" id="tSvg87912cab68" title="Rectangle 1" d="M0 50C0 22.3857 22.3857 0 50 0C50 0 50 0 50 0C77.6143 0 100 22.3857 100 50C100 50 100 50 100 50C100 77.6143 77.6143 100 50 100C50 100 50 100 50 100C22.3857 100 0 77.6143 0 50Z"></path><path fill="#ffffff" stroke="#ffffff" fill-opacity="1" stroke-width="0" stroke-opacity="1" color="rgb(51, 51, 51)" fill-rule="evenodd" id="tSvg2dd1179a7a" title="Path 1" d="M48.5489 55.6072C48.7703 55.8967 49.1128 56.0697 49.4775 56.0775C49.4856 56.0775 49.4936 56.0775 49.5016 56.0775C49.8575 56.0775 50.1961 55.92 50.4239 55.6456C54.5061 50.7416 58.5884 45.8375 62.6703 40.9336C62.7039 40.8944 62.7336 40.8528 62.7616 40.8097C63.5397 39.5936 63.9552 38.1811 63.96 36.7375C63.96 32.5592 60.5608 29.16 56.3816 29.16C56.3811 29.16 56.3805 29.16 56.38 29.16C54.369 29.1549 52.4395 29.9539 51.0208 31.3792C50.6357 31.7638 50.2926 32.1884 49.9975 32.6456C48.6041 30.4743 46.2016 29.1608 43.6216 29.16C39.4408 29.16 36.04 32.5592 36.04 36.7375C36.04 38.352 36.5592 39.9072 37.5536 41.252C41.2187 46.037 44.8838 50.8221 48.5489 55.6072ZM43.6225 31.56C46.4807 31.5631 48.7969 33.8793 48.8 36.7375C48.8 37.6615 49.8 38.2387 50.6 37.7767C50.9713 37.5625 51.2 37.1662 51.2 36.7375C51.2 35.3552 51.7392 34.0552 52.7175 33.0767C53.6961 32.0984 54.9975 31.56 56.38 31.56C56.3805 31.56 56.3811 31.56 56.3816 31.56C59.24 31.5631 61.5566 33.8792 61.56 36.7375C61.56 37.6864 61.288 38.6264 60.7744 39.4608C57.0298 43.9589 53.2852 48.457 49.5408 52.9552C46.1844 48.5731 42.8284 44.1908 39.472 39.8089C38.7975 38.8961 38.4408 37.8344 38.4408 36.7375C38.4408 33.8825 40.7656 31.56 43.6225 31.56C43.6225 31.56 43.6225 31.56 43.6225 31.56Z"></path><path fill="#ffffff" stroke="#ffffff" fill-opacity="1" stroke-width="0" stroke-opacity="1" color="rgb(51, 51, 51)" fill-rule="evenodd" id="tSvgf6f5c17814" title="Path 2" d="M77.6536 80.9864C77.6911 80.8703 77.7167 80.748 77.7167 80.6192C77.7167 69.332 77.7167 58.0448 77.7167 46.7575C77.7162 46.7525 77.7157 46.7475 77.7152 46.7425C77.7144 46.6936 77.7072 46.6448 77.7008 46.5967C77.6967 46.5664 77.6961 46.5361 77.6897 46.5064C77.6816 46.4672 77.6664 46.4303 77.6544 46.392C77.6539 46.3907 77.6533 46.3893 77.6528 46.388C77.6472 46.372 77.6439 46.3561 77.6375 46.34C77.6303 46.3208 77.6256 46.3008 77.6175 46.2825C77.6056 46.2544 77.5872 46.228 77.5728 46.2C77.5503 46.1575 77.5289 46.1144 77.5016 46.0752C77.4984 46.0711 77.4967 46.0664 77.4944 46.0625C75.6692 43.502 73.8438 40.9413 72.0184 38.3808C72.0184 32.0467 72.0184 25.7125 72.0184 19.3784C72.0184 18.7157 71.4811 18.1784 70.8184 18.1784C56.9397 18.1784 43.0611 18.1784 29.1825 18.1784C28.5197 18.1784 27.9825 18.7157 27.9825 19.3784C27.9825 25.7166 27.9825 32.0548 27.9825 38.3928C26.157 40.9485 24.3316 43.5043 22.5064 46.06C22.5039 46.0639 22.5016 46.068 22.4992 46.072C22.4711 46.1143 22.4461 46.1584 22.4239 46.2039C22.4103 46.2297 22.3944 46.2536 22.3825 46.28C22.3744 46.2992 22.3689 46.3192 22.3616 46.3392C22.3567 46.3552 22.352 46.3711 22.3472 46.3872C22.3467 46.3893 22.3461 46.3915 22.3456 46.3936C22.3336 46.4311 22.3192 46.468 22.3103 46.5064C22.3039 46.5352 22.3033 46.5656 22.2992 46.5952C22.2928 46.6448 22.2848 46.6936 22.2839 46.7433C22.2834 46.7484 22.283 46.7533 22.2825 46.7584C22.2825 58.0459 22.2825 69.3333 22.2825 80.6208C22.2825 80.752 22.3089 80.8767 22.348 80.9952C22.3528 81.0108 22.3575 81.0267 22.3625 81.0425C22.4141 81.178 22.49 81.3034 22.5864 81.412C22.592 81.4184 22.5936 81.4264 22.5992 81.4328C22.6039 81.4384 22.6103 81.4416 22.6161 81.4472C22.6552 81.488 22.6984 81.5239 22.7433 81.5592C22.7633 81.5744 22.7808 81.5928 22.8016 81.6072C22.8544 81.6439 22.9111 81.6736 22.9697 81.7008C22.9839 81.7072 22.9967 81.7175 23.0111 81.7233C23.1561 81.7848 23.3152 81.82 23.4825 81.82C41.1603 81.82 58.838 81.82 76.5161 81.82C76.6833 81.82 76.8425 81.7856 76.9872 81.7233C77.0097 81.7136 77.0303 81.6992 77.052 81.688C77.1016 81.6633 77.1511 81.6375 77.1967 81.6064C77.2208 81.5897 77.2425 81.568 77.2656 81.5497C77.3064 81.5167 77.3464 81.4839 77.3816 81.4464C77.3884 81.4405 77.3949 81.4348 77.4016 81.4289C77.408 81.4216 77.4097 81.412 77.4161 81.4048C77.5107 81.2967 77.5852 81.1726 77.6361 81.0384C77.6439 81.0208 77.648 81.0039 77.6536 80.9864ZM24.6833 49.4792C29.8456 54.1941 35.008 58.9092 40.1703 63.6239C35.008 68.377 29.8456 73.1302 24.6833 77.8833C24.6833 68.4152 24.6833 58.9472 24.6833 49.4792ZM41.9497 65.2489C44.3634 67.4533 46.7774 69.6579 49.1911 71.8625C49.649 72.283 50.3526 72.283 50.8103 71.8625C53.1936 69.6856 55.5767 67.5089 57.96 65.332C63.1131 70.0277 68.2661 74.7234 73.4192 79.4192C57.7989 79.4192 42.1787 79.4192 26.5584 79.4192C31.6889 74.6957 36.8192 69.9723 41.9497 65.2489ZM59.7392 63.7072C64.932 58.9644 70.1248 54.222 75.3175 49.4792C75.3175 58.9539 75.3175 68.4285 75.3175 77.9033C70.1248 73.1711 64.932 68.4392 59.7392 63.7072ZM74.9233 46.5889C73.9552 47.4731 72.9872 48.3574 72.0192 49.2416C72.0192 46.9995 72.0192 44.7574 72.0192 42.5152C72.9872 43.8731 73.9552 45.2308 74.9233 46.5889ZM69.6184 20.5784C69.6184 30.8633 69.6184 41.148 69.6184 51.4328C65.4893 55.2043 61.3603 58.9757 57.2311 62.7472C57.1711 62.792 57.1033 62.8225 57.0503 62.8792C57.0303 62.9008 57.0248 62.9289 57.0072 62.952C54.6715 65.0852 52.3357 67.2187 50 69.352C43.4608 63.3792 36.9216 57.4064 30.3825 51.4336C30.3825 41.1485 30.3825 30.8634 30.3825 20.5784C43.4611 20.5784 56.5397 20.5784 69.6184 20.5784ZM27.9825 49.2416C27.0144 48.3574 26.0464 47.4731 25.0784 46.5889C26.0464 45.2333 27.0144 43.8779 27.9825 42.5225C27.9825 44.7621 27.9825 47.002 27.9825 49.2416Z"></path><defs></defs></svg> 