<?xml version="1.0" encoding="UTF-8"?> <svg xmlns="http://www.w3.org/2000/svg" viewBox="0 0 100.00 100.00" data-guides="{&quot;vertical&quot;:[],&quot;horizontal&quot;:[]}"><path fill-rule="evenodd" fill="#225d2d" x="0" y="0" width="100" height="100" rx="50" ry="50" id="tSvga2f6417412" title="Rectangle 1" fill-opacity="1" stroke="none" stroke-opacity="1" d="M0 50C0 22.3858 22.3858 0 50 0H50C77.6142 0 100 22.3858 100 50H100C100 77.6142 77.6142 100 50 100H50C22.3858 100 0 77.6142 0 50Z"></path><path fill="#ffffff" stroke="#ffffff" fill-opacity="1" stroke-width="0" stroke-opacity="1" fill-rule="evenodd" id="tSvg1868889bcb4" title="Path 1" d="M71.504 49.936C71.3174 49.491 70.8825 49.2011 70.4 49.2C65.7947 49.2 61.1893 49.2 56.584 49.2C59.2507 38.368 61.9173 27.536 64.584 16.704C64.7836 15.8021 63.932 15.0223 63.0511 15.3004C62.8655 15.3589 62.697 15.4618 62.56 15.6C51.2907 26.9173 40.0213 38.2347 28.752 49.552C28.0992 50.2056 28.3988 51.3208 29.2912 51.5593C29.3919 51.5862 29.4957 51.5999 29.6 51.6C34.2053 51.6 38.8107 51.6 43.416 51.6C40.7493 62.432 38.0827 73.264 35.416 84.096C35.2164 84.9979 36.068 85.7777 36.9489 85.4996C37.1345 85.4411 37.303 85.3382 37.44 85.2C48.7093 73.8827 59.9787 62.5653 71.248 51.248C71.5916 50.9031 71.6927 50.3848 71.504 49.936ZM38.8 80.472C41.2427 70.544 43.6853 60.616 46.128 50.688C46.3162 49.9269 45.736 49.1928 44.952 49.2C40.7973 49.2 36.6427 49.2 32.488 49.2C42.0587 39.576 51.6293 29.952 61.2 20.328C58.7627 30.256 56.3253 40.184 53.888 50.112C53.7014 50.8666 54.2706 51.5968 55.048 51.6C59.2027 51.6 63.3573 51.6 67.512 51.6C57.9413 61.224 48.3707 70.848 38.8 80.472ZM66.848 65.152C66.1722 64.5223 65.068 64.8603 64.8606 65.7604C64.7711 66.1489 64.8803 66.5564 65.152 66.848C68.352 70.048 71.552 73.248 74.752 76.448C75.4278 77.0777 76.532 76.7397 76.7394 75.8396C76.8289 75.4511 76.7197 75.0436 76.448 74.752C73.248 71.552 70.048 68.352 66.848 65.152ZM32.4 34.4C33.3238 34.3992 33.9002 33.3987 33.4376 32.5991C33.3854 32.5088 33.3217 32.4258 33.248 32.352C30.048 29.152 26.848 25.952 23.648 22.752C22.9722 22.1223 21.868 22.4603 21.6606 23.3604C21.5711 23.7489 21.6803 24.1564 21.952 24.448C25.152 27.648 28.352 30.848 31.552 34.048C31.7768 34.2731 32.0818 34.3997 32.4 34.4Z"></path><path fill="#ffffff" stroke="#ffffff" fill-opacity="1" stroke-width="0" stroke-opacity="1" fill-rule="evenodd" id="tSvg12e2e6ea9e2" title="Path 2" d="M64.752 33.648C65.2205 34.1159 65.9795 34.1159 66.448 33.648C69.648 30.448 72.848 27.248 76.048 24.048C76.6777 23.3722 76.3397 22.268 75.4396 22.0606C75.0511 21.9711 74.6436 22.0803 74.352 22.352C71.152 25.552 67.952 28.752 64.752 31.952C64.2841 32.4205 64.2841 33.1795 64.752 33.648ZM31.952 65.552C28.752 68.752 25.552 71.952 22.352 75.152C21.6762 75.7817 21.9355 76.907 22.8188 77.1774C23.2578 77.3118 23.735 77.1839 24.048 76.848C27.248 73.648 30.448 70.448 33.648 67.248C34.2777 66.5722 33.9397 65.468 33.0396 65.2606C32.6511 65.1711 32.2436 65.2803 31.952 65.552ZM24.8 58C23.2604 58 22.2981 59.6667 23.0679 61C23.4252 61.6188 24.0855 62 24.8 62C26.3396 62 27.3019 60.3333 26.5321 59C26.1748 58.3812 25.5145 58 24.8 58ZM17.6 52.4C16.0604 52.4 15.0981 54.0667 15.8679 55.4C16.2252 56.0188 16.8855 56.4 17.6 56.4C19.1396 56.4 20.1019 54.7333 19.3321 53.4C18.9748 52.7812 18.3145 52.4 17.6 52.4ZM81.6 42C80.0604 42 79.0981 43.6667 79.868 45C80.2252 45.6188 80.8855 46 81.6 46C83.1396 46 84.1019 44.3333 83.3321 43C82.9748 42.3812 82.3145 42 81.6 42ZM35.2 22C33.6604 22 32.6981 23.6667 33.4679 25C33.8252 25.6188 34.4855 26 35.2 26C36.7396 26 37.7019 24.3333 36.9321 23C36.5748 22.3812 35.9145 22 35.2 22Z"></path><defs></defs></svg> 