<?xml version="1.0" encoding="UTF-8"?> <svg xmlns="http://www.w3.org/2000/svg" viewBox="0 0 100 100" fill-rule="evenodd"><rect x="0" y="0" width="100" height="100" fill="#94b506" rx="50" ry="50"></rect><g class="t-group-origins" style="transform-origin:center;transform:scale(0.8);"><path d="M48.186 57.009c.277.362.705.578 1.161.588h.03c.445 0 .868-.197 1.153-.54l15.308-18.39c.042-.049.079-.101.114-.155a9.503 9.503 0 0 0 1.498-5.09c0-5.223-4.249-9.472-9.473-9.472h-.002a9.418 9.418 0 0 0-6.699 2.774 9.568 9.568 0 0 0-1.279 1.583 9.474 9.474 0 0 0-7.97-4.357c-5.226 0-9.477 4.249-9.477 9.472 0 2.018.649 3.962 1.892 5.643l13.744 17.944zM42.028 26.95a6.479 6.479 0 0 1 6.472 6.472 1.5 1.5 0 1 0 3 0c0-1.728.674-3.353 1.897-4.576s2.85-1.896 4.578-1.896h.002a6.48 6.48 0 0 1 6.473 6.472c0 1.186-.34 2.361-.982 3.404L49.426 53.694 36.84 37.261c-.843-1.141-1.289-2.468-1.289-3.839 0-3.569 2.906-6.472 6.477-6.472z" stroke-width="0" stroke="#ffffff" fill="#ffffff"></path><path d="M84.567 88.733c.047-.145.079-.298.079-.459V45.947l-.002-.019c-.001-.061-.01-.122-.018-.182-.005-.038-.006-.076-.014-.113-.01-.049-.029-.095-.044-.143l-.002-.005c-.007-.02-.011-.04-.019-.06-.009-.024-.015-.049-.025-.072-.015-.035-.038-.068-.056-.103-.028-.053-.055-.107-.089-.156-.004-.005-.006-.011-.009-.016l-6.845-9.602V11.723a1.5 1.5 0 0 0-1.5-1.5H23.978a1.5 1.5 0 0 0-1.5 1.5v23.768l-6.845 9.584-.009.015a1.406 1.406 0 0 0-.094.165c-.017.032-.037.062-.052.095-.01.024-.017.049-.026.074l-.018.06-.002.008c-.015.047-.033.093-.044.141-.008.036-.009.074-.014.111-.008.062-.018.123-.019.185l-.002.019v42.328c0 .164.033.32.082.468l.018.059a1.5 1.5 0 0 0 .28.462c.007.008.009.018.016.026.006.007.014.011.021.018.049.051.103.096.159.14.025.019.047.042.073.06.066.046.137.083.21.117.018.008.034.021.052.028.181.077.38.121.589.121h66.292c.209 0 .408-.043.589-.121.028-.012.054-.03.081-.044.062-.031.124-.063.181-.102.03-.021.057-.048.086-.071.051-.041.101-.082.145-.129l.025-.022c.008-.009.01-.021.018-.03a1.5 1.5 0 0 0 .275-.458c.01-.022.015-.043.022-.065zM18.354 49.349 37.713 67.03 18.354 84.854V49.349zm21.583 19.712 9.052 8.267a1.496 1.496 0 0 0 2.024 0l8.937-8.163 19.324 17.609H20.698l19.239-17.713zm22.237-1.927 19.473-17.785v35.53L62.174 67.134zm18.98-21.398-3.63 3.316v-8.408l3.63 5.092zm-6.631-32.513v38.568L59.039 65.934c-.075.056-.16.094-.226.165-.025.027-.032.062-.054.091l-8.759 8-24.522-22.398V13.223h49.045zM22.478 49.052l-3.63-3.316 3.63-5.083v8.399z" stroke-width="0" stroke="#ffffff" fill="#ffffff"></path></g></svg> 